<?xml version="1.0" encoding="UTF-8" standalone="no"?><!DOCTYPE svg PUBLIC "-//W3C//DTD SVG 1.1//EN" "http://www.w3.org/Graphics/SVG/1.1/DTD/svg11.dtd"><svg width="100%" height="100%" viewBox="0 0 4167 4167" version="1.1" xmlns="http://www.w3.org/2000/svg" xmlns:xlink="http://www.w3.org/1999/xlink" xml:space="preserve" xmlns:serif="http://www.serif.com/" style="fill-rule:evenodd;clip-rule:evenodd;stroke-linejoin:round;stroke-miterlimit:2;"><path d="M240.149,1011.09c52.146,155.943 164.283,479.816 316.677,857.023c118.945,294.412 261.929,621.437 421.634,926.101c245.281,467.915 527.569,884.088 821.908,1042.35c14.15,7.34 19.68,24.786 12.34,38.937c-7.339,14.15 -24.786,19.679 -38.936,12.34c-308.216,-154.093 -616.082,-571.269 -881.806,-1046.81c-169.647,-303.6 -322.647,-630.555 -448.438,-925.921c-226.741,-532.403 -365.962,-961.453 -365.962,-961.453l-31.233,-97.373l101.908,8.475c0,0 398.906,32.059 932.121,132.802c414.16,78.25 909.182,198.238 1361.54,371.341c561.354,214.814 1055.9,513.353 1255.82,913.549c7.329,14.156 1.787,31.599 -12.369,38.928c-14.155,7.329 -31.598,1.787 -38.927,-12.369c-204.177,-380.768 -692.959,-649.648 -1240.08,-843.634c-450.052,-159.569 -940.325,-266.353 -1349.6,-338.23c-365.506,-64.191 -666.438,-100.092 -816.599,-116.064Z" style="fill:#00ff83;"/><path d="M2825.44,256.904c-118.079,80.278 -372.583,260.231 -662.542,507.19c-314.685,268.019 -671.511,614.522 -938.292,1003.1c-301.666,439.386 -489.9,931.418 -365.38,1422.62c4.138,15.394 -5,31.251 -20.394,35.389c-15.394,4.138 -31.252,-5 -35.389,-20.394c-144.476,-508.318 33.077,-1028.53 336.282,-1494.36c262.881,-403.879 619.669,-767.026 937.643,-1045.4c403.635,-353.364 744.32,-570.212 744.32,-570.212l69.976,-44.706l30.564,77.208c0,0 131.879,334.753 272.355,805.712c108.505,363.772 222.049,808.759 286.884,1242.19c82.152,549.193 84.357,1079.76 -95.266,1407.31c-7.459,14.088 -24.952,19.47 -39.04,12.011c-14.088,-7.458 -19.47,-24.951 -12.011,-39.039c164.469,-321.993 141.687,-835.038 48.462,-1364.35c-75.108,-426.448 -197.651,-863.099 -310.873,-1220.67c-103.848,-327.969 -200.056,-589.243 -247.299,-713.603Z" style="fill:#00ff83;"/></svg>